<?xml version="1.0" standalone="no"?>
<!DOCTYPE svg PUBLIC "-//W3C//DTD SVG 20010904//EN"
 "http://www.w3.org/TR/2001/REC-SVG-20010904/DTD/svg10.dtd">
<svg version="1.0" xmlns="http://www.w3.org/2000/svg"
 width="1328.000000pt" height="1328.000000pt" viewBox="0 0 1328.000000 1328.000000"
 preserveAspectRatio="xMidYMid meet">
<metadata>
Created by potrace 1.11, written by Peter Selinger 2001-2013
</metadata>
<g transform="translate(0.000000,1328.000000) scale(0.100000,-0.100000)"
fill="#000000" stroke="none">
<path d="M1815 9614 c-482 -18 -711 -28 -1077 -49 -337 -19 -434 -27 -458 -40
-96 -50 -164 -281 -212 -720 -40 -363 -24 -1156 32 -1622 44 -362 99 -546 183
-620 30 -26 46 -31 112 -38 106 -10 3173 -22 3259 -13 81 8 166 46 191 85 21
31 96 325 120 468 23 139 24 271 2 312 -23 44 -81 62 -133 42 -60 -23 -73 -50
-94 -200 -38 -260 -99 -392 -199 -432 -82 -33 -326 -40 -1541 -43 -778 -2
-1211 1 -1260 8 -105 14 -176 43 -231 95 -58 54 -80 99 -125 256 -46 161 -80
363 -95 572 -14 195 -6 906 11 1070 31 292 113 485 231 546 50 25 125 34 499
58 493 33 949 44 1485 38 492 -6 623 -13 835 -43 307 -44 354 -88 384 -357 16
-143 31 -188 68 -208 30 -16 164 -15 183 1 20 16 20 123 0 273 -29 222 -112
409 -198 450 -63 30 -519 79 -892 97 -227 10 -934 19 -1080 14z"/>
<path d="M2235 9327 c-25 -21 -29 -38 -71 -307 -24 -157 -65 -412 -89 -567
-25 -155 -45 -287 -45 -293 0 -5 -14 -10 -30 -10 -43 0 -90 -22 -124 -59 -17
-17 -34 -31 -39 -31 -5 0 -32 20 -60 45 -67 59 -141 95 -208 102 -49 5 -65 0
-184 -50 -155 -67 -228 -87 -311 -87 -35 0 -91 -6 -126 -14 -43 -10 -140 -16
-301 -18 l-239 -3 -29 -33 c-32 -35 -35 -57 -17 -97 23 -50 48 -55 281 -55
170 0 235 4 322 20 60 11 134 20 165 20 71 0 170 28 304 85 58 25 113 45 122
45 25 0 83 -38 141 -92 l52 -48 71 0 c78 0 119 13 167 54 19 16 52 30 85 36
71 13 101 26 116 51 7 11 27 113 43 227 34 230 46 303 48 285 0 -6 12 -112 25
-235 14 -122 30 -275 37 -338 11 -104 15 -117 40 -142 19 -20 38 -28 61 -28
40 0 65 20 107 82 60 90 127 121 237 111 55 -5 70 -2 116 20 29 15 76 47 105
72 30 27 61 45 75 45 15 0 74 -36 149 -91 68 -50 142 -100 163 -111 48 -25
138 -30 966 -52 1266 -35 1200 -32 1271 -53 58 -17 166 -70 157 -77 -2 -2 -70
1 -153 5 -82 5 -649 7 -1260 5 -1187 -4 -1245 -6 -1424 -56 -234 -65 -276
-150 -275 -555 1 -110 5 -220 10 -245 9 -42 12 -45 51 -53 55 -11 102 3 127
37 20 26 21 38 18 247 -5 328 11 369 158 394 241 40 411 49 960 50 733 0 1530
-6 1546 -12 10 -3 12 -17 8 -47 -5 -35 -2 -47 17 -68 73 -79 389 -122 611 -83
184 32 463 147 668 275 47 29 96 60 110 68 14 9 -6 -17 -45 -57 -220 -227
-523 -357 -912 -390 -145 -13 -222 -38 -255 -83 l-21 -31 24 -20 c13 -11 53
-34 89 -51 61 -29 72 -31 180 -31 375 2 784 187 1013 460 90 107 165 248 183
341 6 31 4 33 -27 42 -43 11 -46 28 -19 113 19 57 21 74 11 97 -13 32 -65 67
-86 58 -8 -3 -37 -35 -66 -71 -28 -36 -55 -63 -59 -58 -5 4 -25 71 -45 148
-62 233 -129 351 -232 412 -41 24 -45 24 -62 8 -11 -9 -24 -29 -31 -45 -10
-24 -8 -35 14 -78 75 -147 160 -409 172 -527 6 -60 5 -65 -21 -89 -36 -33 -53
-33 -61 2 -34 155 -137 384 -279 622 -99 165 -117 186 -199 241 -49 33 -66 39
-110 39 -28 0 -57 -4 -65 -9 -11 -7 17 -59 134 -242 178 -280 280 -473 334
-634 23 -66 41 -127 41 -136 0 -9 -9 -24 -20 -34 -19 -17 -21 -17 -39 -1 -11
10 -31 54 -46 99 -64 196 -207 437 -424 716 -106 135 -152 178 -229 213 -36
16 -46 17 -69 6 -57 -28 -55 -33 102 -229 187 -234 292 -390 372 -554 74 -153
85 -212 14 -78 -89 168 -203 328 -333 468 -129 139 -456 265 -803 310 -196 25
-489 34 -821 24 -616 -17 -975 -9 -1177 26 -94 16 -140 47 -170 114 -20 42
-22 64 -22 263 0 144 -4 221 -11 228 -6 6 -43 14 -82 17 -70 6 -72 5 -81 -20
-25 -65 -43 -253 -38 -387 6 -154 23 -229 61 -269 35 -37 178 -104 288 -135
218 -63 449 -72 1113 -45 514 20 899 19 1043 -4 158 -25 270 -59 391 -118 87
-43 118 -65 186 -133 117 -115 191 -273 139 -293 -9 -3 -75 13 -147 35 -73 23
-159 46 -192 51 -63 11 -420 24 -1115 41 -228 6 -516 15 -640 20 -374 16 -374
16 -440 85 -47 49 -158 131 -203 150 -84 35 -170 15 -257 -60 -73 -63 -74 -63
-190 -67 -72 -3 -96 -8 -148 -34 -34 -17 -62 -28 -62 -25 0 4 -18 173 -39 376
-22 204 -49 460 -61 570 -25 242 -25 241 -55 271 -32 32 -84 32 -120 1z"/>
<path d="M1904 9332 c-6 -4 -20 -23 -30 -42 -21 -40 -24 -123 -10 -296 7 -92
6 -124 -9 -189 -23 -106 -45 -127 -146 -144 -258 -41 -719 -66 -1075 -58 -221
5 -244 4 -275 -12 -34 -18 -34 -19 -34 -87 l0 -69 595 0 c623 0 685 3 854 46
128 33 206 81 242 151 45 87 68 316 53 533 -8 119 -13 153 -26 163 -18 13
-121 17 -139 4z"/>
<path d="M1020 7704 c-14 -2 -167 -8 -340 -13 -173 -5 -323 -13 -334 -17 -16
-6 -18 -14 -12 -63 3 -31 10 -72 16 -92 l10 -37 578 2 c567 1 718 -5 834 -35
48 -12 93 -51 121 -103 20 -38 21 -55 22 -261 0 -121 4 -226 8 -232 12 -19
163 -18 170 1 21 54 39 258 34 388 -7 228 -28 269 -172 338 -138 65 -292 102
-500 120 -111 9 -378 11 -435 4z"/>
<path d="M7238 7690 c-9 -6 -31 -36 -49 -68 -61 -106 -206 -286 -311 -388
-223 -214 -481 -344 -738 -370 -69 -7 -138 -16 -155 -20 -42 -10 -99 -39 -115
-60 -13 -15 -10 -20 25 -52 87 -76 198 -104 332 -83 113 17 332 80 393 112
210 111 467 382 584 617 69 137 115 285 96 307 -14 17 -38 19 -62 5z"/>
<path d="M7240 7303 c-157 -279 -262 -426 -392 -549 -135 -128 -293 -201 -456
-212 l-83 -5 3 -41 c3 -39 6 -42 63 -71 52 -26 70 -30 140 -29 100 0 209 30
330 89 268 130 453 374 550 727 30 112 31 143 5 186 -16 26 -53 52 -74 52 -2
0 -41 -66 -86 -147z"/>
<path d="M7134 6599 c-54 -50 -100 -95 -102 -100 -2 -5 26 -46 61 -91 119
-152 198 -311 248 -498 20 -74 23 -109 24 -265 0 -151 -4 -198 -23 -290 -40
-189 -83 -258 -232 -376 l-87 -69 -12 -69 c-14 -86 -14 -121 -1 -121 25 0 133
64 203 119 168 133 285 326 342 558 34 140 47 265 35 338 -9 55 -14 175 -7
175 2 0 45 -10 97 -22 77 -17 128 -22 265 -22 152 -1 178 2 245 23 41 12 87
29 102 37 l27 14 -16 52 c-39 134 -103 161 -283 117 -226 -54 -355 -25 -491
110 -80 80 -135 164 -223 339 -36 72 -67 132 -69 132 -2 0 -48 -41 -103 -91z"/>
<path d="M6736 6362 l-48 -17 -27 -85 c-39 -122 -85 -208 -228 -419 -226 -337
-279 -487 -242 -696 15 -89 15 -88 90 -75 101 18 99 16 99 63 1 230 117 480
340 735 45 50 85 92 90 92 23 0 40 -107 40 -251 0 -181 -18 -291 -99 -615 -89
-355 -104 -452 -104 -674 1 -154 4 -200 22 -275 45 -188 150 -349 285 -437 98
-63 129 -47 142 74 l7 66 -38 39 c-107 109 -172 266 -205 503 -13 91 -8 125
65 505 105 538 121 669 112 910 -8 207 -39 352 -113 516 l-27 59 -56 0 c-31
-1 -78 -9 -105 -18z"/>
<path d="M655 6016 c-157 -30 -291 -101 -395 -207 -79 -80 -123 -152 -160
-261 -86 -253 -50 -559 89 -761 81 -118 250 -234 395 -271 225 -59 483 -41
679 47 l67 30 0 153 c0 85 -3 154 -6 154 -3 0 -51 -23 -107 -50 -129 -63 -227
-85 -352 -77 -104 6 -167 27 -232 77 -123 92 -185 259 -169 455 11 148 46 234
127 321 75 78 147 107 281 112 141 5 231 -15 357 -79 53 -27 97 -49 98 -49 2
0 3 70 3 156 l0 155 -64 29 c-122 55 -206 72 -381 76 -107 2 -183 -1 -230 -10z"/>
<path d="M1640 5260 l0 -750 533 2 532 3 0 145 0 145 -337 3 -338 2 0 165 0
165 305 0 305 0 0 150 0 150 -305 0 -305 0 0 135 0 135 325 0 325 0 0 150 0
150 -520 0 -520 0 0 -750z"/>
<path d="M3038 6004 c-5 -4 -8 -342 -8 -751 l0 -743 200 0 200 0 0 280 0 280
83 0 c69 0 92 -4 133 -25 67 -33 91 -68 218 -322 l106 -213 205 0 c131 0 205
4 205 10 0 22 -245 499 -286 556 -38 54 -121 124 -146 124 -23 0 -2 19 44 41
148 69 227 236 198 422 -21 139 -81 224 -196 279 -117 55 -165 60 -574 65
-206 3 -378 1 -382 -3z m676 -309 c60 -30 80 -64 84 -145 3 -56 0 -78 -17
-114 -33 -66 -68 -80 -223 -84 l-128 -4 0 187 0 187 123 -4 c95 -3 131 -8 161
-23z"/>
<path d="M4337 6003 c-4 -3 -7 -71 -7 -149 l0 -144 248 -2 247 -3 3 -597 2
-598 195 0 195 0 0 600 0 600 245 0 245 0 0 150 0 150 -683 0 c-376 0 -687 -3
-690 -7z"/>
<path d="M12484 5071 c-158 -45 -254 -159 -270 -319 -18 -168 69 -322 220
-393 35 -16 134 -47 220 -69 87 -21 172 -47 189 -57 60 -35 86 -137 52 -202
-19 -38 -66 -77 -111 -91 -59 -20 -230 -9 -281 18 -59 31 -75 60 -81 148 l-5
74 -109 0 -108 0 2 -187 3 -188 108 -3 107 -3 0 53 c1 40 3 49 11 36 32 -55
164 -108 269 -108 189 1 359 97 426 243 26 56 29 72 29 162 -1 73 -6 111 -18
140 -63 143 -167 208 -425 266 -215 49 -257 79 -257 184 0 75 19 107 86 145
38 21 56 25 139 24 78 0 103 -4 143 -24 65 -31 81 -58 87 -149 l5 -76 108 -3
107 -3 0 191 0 190 -110 0 -110 0 0 -47 c0 -47 -1 -48 -18 -27 -71 86 -253
119 -408 75z"/>
<path d="M7750 5005 l0 -65 65 0 65 0 0 -505 0 -505 -65 0 -66 0 3 -62 3 -63
200 0 200 0 0 60 0 60 -62 3 -63 3 0 454 c0 250 2 455 3 455 2 0 141 -234 308
-520 l304 -521 135 3 135 3 3 568 2 567 60 0 60 0 0 65 0 65 -200 0 -200 0 0
-65 0 -65 60 0 60 0 0 -377 c0 -207 -4 -373 -8 -367 -5 5 -120 204 -257 442
l-248 432 -249 0 -248 0 0 -65z"/>
<path d="M9180 5005 l0 -65 60 0 60 0 0 -505 0 -505 -60 0 -60 0 0 -65 0 -65
513 2 512 3 3 188 2 187 -109 0 -110 0 -3 -117 -3 -118 -187 -3 -188 -2 0 225
0 225 110 0 110 0 0 -50 0 -50 75 0 75 0 0 175 0 175 -75 0 -75 0 0 -55 0 -55
-110 0 -110 0 0 200 0 200 180 0 179 0 3 -102 3 -103 105 0 105 0 3 173 2 172
-505 0 -505 0 0 -65z"/>
<path d="M10294 5056 c-3 -7 -4 -35 -2 -62 l3 -49 46 -3 45 -3 82 -337 c154
-636 184 -757 193 -780 9 -22 11 -23 151 -20 l142 3 120 443 c66 243 122 442
125 442 3 0 57 -190 120 -423 62 -232 117 -432 122 -445 8 -22 11 -23 151 -20
l142 3 52 210 c29 116 91 371 139 568 l87 357 44 0 44 0 0 65 0 65 -197 -2
-198 -3 0 -60 0 -60 70 -5 71 -5 -91 -415 c-50 -228 -94 -421 -96 -429 -3 -7
-55 182 -117 420 -62 239 -120 462 -129 497 l-17 62 -126 0 -126 0 -124 -497
c-68 -273 -126 -491 -128 -484 -2 7 -48 200 -101 429 l-97 417 70 5 71 5 0 60
0 60 -268 3 c-221 2 -268 0 -273 -12z"/>
</g>
</svg>
